<?xml version="1.0" encoding="UTF-8" standalone="no"?>
<!-- Created with Inkscape (http://www.inkscape.org/) -->

<svg
   xmlns:dc="http://purl.org/dc/elements/1.1/"
   xmlns:cc="http://creativecommons.org/ns#"
   xmlns:rdf="http://www.w3.org/1999/02/22-rdf-syntax-ns#"
   xmlns:svg="http://www.w3.org/2000/svg"
   xmlns="http://www.w3.org/2000/svg"
   xmlns:xlink="http://www.w3.org/1999/xlink"
   xmlns:sodipodi="http://sodipodi.sourceforge.net/DTD/sodipodi-0.dtd"
   xmlns:inkscape="http://www.inkscape.org/namespaces/inkscape"
   version="1.1"
   width="65"
   height="22"
   id="svg3273"
   inkscape:version="0.48+devel r"
   sodipodi:docname="dark-backdrop-switch-off-disabled.svg">
  <sodipodi:namedview
     pagecolor="#505967"
     bordercolor="#bc1010"
     borderopacity="1"
     objecttolerance="10"
     gridtolerance="10"
     guidetolerance="10"
     inkscape:pageopacity="0"
     inkscape:pageshadow="2"
     inkscape:window-width="1920"
     inkscape:window-height="1029"
     id="namedview68"
     showgrid="false"
     showguides="false"
     inkscape:guide-bbox="true"
     inkscape:showpageshadow="false"
     showborder="true"
     inkscape:zoom="11.641532"
     inkscape:cx="-24.606149"
     inkscape:cy="19.423978"
     inkscape:window-x="0"
     inkscape:window-y="24"
     inkscape:window-maximized="1"
     inkscape:current-layer="layer1"
     inkscape:snap-page="true">
    <inkscape:grid
       type="xygrid"
       id="grid3045"
       empspacing="8"
       visible="true"
       enabled="true"
       snapvisiblegridlinesonly="true" />
    <sodipodi:guide
       orientation="1,0"
       position="0,11"
       id="guide4468" />
    <sodipodi:guide
       orientation="0,1"
       position="31,22"
       id="guide4470" />
    <sodipodi:guide
       orientation="0,1"
       position="31,0"
       id="guide4472" />
    <sodipodi:guide
       orientation="1,0"
       position="66,17"
       id="guide4474" />
  </sodipodi:namedview>
  <defs
     id="defs3275">
    <linearGradient
       id="linearGradient3921-5-9">
      <stop
         offset="0"
         style="stop-color:#2e343c;stop-opacity:1;"
         id="stop3923-6-1" />
      <stop
         offset="1"
         style="stop-color:#505967;stop-opacity:1;"
         id="stop3925-4-6" />
    </linearGradient>
    <clipPath
       clipPathUnits="userSpaceOnUse"
       id="clipPath5926">
      <circle
         transform="matrix(0.75,0,0,0.75,-41,121.36217)"
         id="path5928"
         style="color:#000000;display:inline;overflow:visible;visibility:visible;fill:#ff00ff;fill-opacity:1;fill-rule:nonzero;stroke:none;stroke-width:2;marker:none;enable-background:accumulate"
         inkscape:export-filename="sclade-slider-normal.png"
         inkscape:export-xdpi="90"
         inkscape:export-ydpi="90"
         cx="80"
         cy="272"
         r="8" />
    </clipPath>
    <clipPath
       clipPathUnits="userSpaceOnUse"
       id="clipPath4783">
      <rect
         ry="6"
         rx="6"
         y="282.36218"
         x="-156"
         height="80"
         width="84"
         id="rect4785"
         style="fill:#ff00ff;fill-opacity:1;fill-rule:nonzero;stroke:none" />
    </clipPath>
    <linearGradient
       inkscape:collect="always"
       xlink:href="#linearGradient3969"
       id="linearGradient4893"
       gradientUnits="userSpaceOnUse"
       gradientTransform="matrix(0,-1,1,0,-224,480.36217)"
       x1="49"
       y1="272"
       x2="73"
       y2="272" />
    <linearGradient
       id="linearGradient3969">
      <stop
         id="stop3971"
         offset="0"
         style="stop-color:#000000;stop-opacity:1;" />
      <stop
         id="stop3973"
         offset="1"
         style="stop-color:#000000;stop-opacity:0;" />
    </linearGradient>
    <linearGradient
       id="linearGradient3895">
      <stop
         style="stop-color:#ffffff;stop-opacity:1;"
         offset="0"
         id="stop3897" />
      <stop
         style="stop-color:#ffffff;stop-opacity:0;"
         offset="1"
         id="stop3899" />
    </linearGradient>
    <clipPath
       clipPathUnits="userSpaceOnUse"
       id="clipPath4342">
      <rect
         style="color:#000000;display:inline;overflow:visible;visibility:visible;fill:#ff00ff;fill-opacity:1;fill-rule:nonzero;stroke:none;stroke-width:2;marker:none;enable-background:accumulate"
         id="rect4344"
         width="28"
         height="18"
         x="18"
         y="2"
         ry="9"
         rx="9" />
    </clipPath>
    <clipPath
       clipPathUnits="userSpaceOnUse"
       id="clipPath4372">
      <rect
         rx="8"
         ry="8"
         y="3"
         x="19"
         height="16.000002"
         width="26"
         id="rect4374"
         style="color:#000000;display:inline;overflow:visible;visibility:visible;fill:#ff00ff;fill-opacity:1;fill-rule:nonzero;stroke:none;stroke-width:2;marker:none;enable-background:accumulate" />
    </clipPath>
    <linearGradient
       id="linearGradient3921-5-9-7">
      <stop
         offset="0"
         style="stop-color:#004484;stop-opacity:1;"
         id="stop3923-6-1-8" />
      <stop
         offset="1"
         style="stop-color:#2998ff;stop-opacity:1;"
         id="stop3925-4-6-9" />
    </linearGradient>
    <linearGradient
       y2="25"
       x2="35"
       y1="3"
       x1="35"
       gradientUnits="userSpaceOnUse"
       id="linearGradient3878"
       xlink:href="#linearGradient4115-2-5"
       inkscape:collect="always" />
    <linearGradient
       inkscape:collect="always"
       id="linearGradient4115-2-5">
      <stop
         style="stop-color:#ffffff;stop-opacity:1;"
         offset="0"
         id="stop4117-3-6" />
      <stop
         style="stop-color:#ffffff;stop-opacity:0;"
         offset="1"
         id="stop4119-6-8" />
    </linearGradient>
    <linearGradient
       inkscape:collect="always"
       xlink:href="#linearGradient4115-2"
       id="linearGradient4394"
       gradientUnits="userSpaceOnUse"
       x1="35"
       y1="2"
       x2="35"
       y2="22"
       gradientTransform="matrix(1,0,0,-1,-2,22)" />
    <linearGradient
       inkscape:collect="always"
       id="linearGradient4115-2">
      <stop
         style="stop-color:#ffffff;stop-opacity:1;"
         offset="0"
         id="stop4117-3" />
      <stop
         style="stop-color:#ffffff;stop-opacity:0;"
         offset="1"
         id="stop4119-6" />
    </linearGradient>
    <linearGradient
       inkscape:collect="always"
       xlink:href="#linearGradient3921-5-9-5"
       id="linearGradient4336"
       x1="35"
       y1="3"
       x2="35"
       y2="19"
       gradientUnits="userSpaceOnUse"
       gradientTransform="translate(-2,0)" />
    <linearGradient
       id="linearGradient3921-5-9-5">
      <stop
         offset="0"
         style="stop-color:#30363e;stop-opacity:1"
         id="stop3923-6-1-7" />
      <stop
         offset="1"
         style="stop-color:#464e5a;stop-opacity:1"
         id="stop3925-4-6-8" />
    </linearGradient>
    <linearGradient
       inkscape:collect="always"
       xlink:href="#linearGradient4071-3-3"
       id="linearGradient5166"
       gradientUnits="userSpaceOnUse"
       x1="35"
       y1="3"
       x2="35"
       y2="37"
       gradientTransform="translate(-2,0)" />
    <linearGradient
       inkscape:collect="always"
       id="linearGradient4071-3-3">
      <stop
         style="stop-color:#000000;stop-opacity:1;"
         offset="0"
         id="stop4073-8-8" />
      <stop
         style="stop-color:#000000;stop-opacity:0;"
         offset="1"
         id="stop4075-4-7" />
    </linearGradient>
    <clipPath
       clipPathUnits="userSpaceOnUse"
       id="clipPath5926-8">
      <circle
         r="8"
         cy="272"
         cx="80"
         transform="matrix(0.75,0,0,0.75,-41,121.36217)"
         id="path5928-6"
         style="color:#000000;display:inline;overflow:visible;visibility:visible;fill:#ff00ff;fill-opacity:1;fill-rule:nonzero;stroke:none;stroke-width:2;marker:none;enable-background:accumulate"
         inkscape:export-filename="sclade-slider-normal.png"
         inkscape:export-xdpi="90"
         inkscape:export-ydpi="90" />
    </clipPath>
    <linearGradient
       inkscape:collect="always"
       xlink:href="#linearGradient5429-1"
       id="linearGradient6178"
       x1="12"
       y1="325.36218"
       x2="26"
       y2="325.36218"
       gradientUnits="userSpaceOnUse"
       gradientTransform="translate(-344.36218,-306.36218)" />
    <linearGradient
       id="linearGradient5429-1">
      <stop
         style="stop-color:#505967;stop-opacity:1"
         offset="0"
         id="stop5431-6" />
      <stop
         style="stop-color:#788496;stop-opacity:1"
         offset="1"
         id="stop5433-0" />
    </linearGradient>
    <linearGradient
       y2="272"
       x2="73"
       y1="272"
       x1="54"
       gradientTransform="matrix(0,1.1666667,1.1666667,0,-269.33333,334.36217)"
       gradientUnits="userSpaceOnUse"
       id="linearGradient4511"
       xlink:href="#linearGradient3895-0"
       inkscape:collect="always" />
    <linearGradient
       id="linearGradient3895-0">
      <stop
         style="stop-color:#ffffff;stop-opacity:1;"
         offset="0"
         id="stop3897-47" />
      <stop
         style="stop-color:#ffffff;stop-opacity:0;"
         offset="1"
         id="stop3899-5" />
    </linearGradient>
  </defs>
  <metadata
     id="metadata3278">
    <rdf:RDF>
      <cc:Work
         rdf:about="">
        <dc:format>image/svg+xml</dc:format>
        <dc:type
           rdf:resource="http://purl.org/dc/dcmitype/StillImage" />
        <dc:title></dc:title>
      </cc:Work>
    </rdf:RDF>
  </metadata>
  <g
     inkscape:groupmode="layer"
     id="layer1"
     inkscape:label="Trough">
    <g
       id="g3902"
       style="opacity:0.4">
      <path
         sodipodi:nodetypes="sssssss"
         inkscape:connector-curvature="0"
         id="path4392"
         d="m 25,19.96875 c -4.956878,0 -8.96875,-4.011872 -8.96875,-8.96875 0,-4.956878 4.011872,-8.96875 8.96875,-8.96875 l 14,0 c 4.956878,0 8.96875,4.011872 8.96875,8.96875 0,4.956878 -4.011872,8.96875 -8.96875,8.96875 z"
         style="color:#000000;display:inline;overflow:visible;visibility:visible;opacity:0.1;fill:url(#linearGradient4394);fill-opacity:1;fill-rule:nonzero;stroke:none;stroke-width:2;marker:none;enable-background:accumulate" />
      <rect
         rx="8"
         ry="8"
         y="3"
         x="17"
         height="16.000002"
         width="30"
         id="rect3560"
         style="color:#000000;display:inline;overflow:visible;visibility:visible;fill:url(#linearGradient4336);fill-opacity:1;fill-rule:nonzero;stroke:none;stroke-width:2;marker:none;enable-background:accumulate" />
      <path
         sodipodi:nodetypes="ssssssssssssss"
         id="rect4944"
         d="m 25,3 c -4.432,0 -8,3.568 -8,8 0,4.432 3.568,8 8,8 l 14,0 c 4.432,0 8,-3.568 8,-8 0,-4.432 -3.568,-8 -8,-8 z m 0,0.96875 14,0 c 3.909758,0 7.03125,3.121492 7.03125,7.03125 0,3.909758 -3.121492,7.03125 -7.03125,7.03125 l -14,0 c -3.909758,0 -7.03125,-3.121492 -7.03125,-7.03125 0,-3.909758 3.121492,-7.03125 7.03125,-7.03125 z"
         style="color:#000000;display:inline;overflow:visible;visibility:visible;opacity:0.4;fill:url(#linearGradient5166);fill-opacity:1;fill-rule:nonzero;stroke:none;stroke-width:2;marker:none;enable-background:accumulate"
         inkscape:connector-curvature="0" />
      <rect
         y="0"
         x="0"
         height="22"
         width="65"
         id="rect3094"
         style="color:#000000;display:inline;overflow:visible;visibility:visible;opacity:0.4;fill:none;stroke:none;stroke-width:1;marker:none;enable-background:accumulate" />
      <path
         inkscape:connector-curvature="0"
         id="rect3098"
         d="M 53.5,8 C 52.119288,8 51,9.3431458 51,11 c 0,1.656854 1.119288,3 2.5,3 1.380712,0 2.5,-1.343146 2.5,-3 0,-1.6568542 -1.119288,-3 -2.5,-3 z m 3.5,0 0,1 0,1 0,1 0,3 1,0 0,-3 2,0 0,-1 -2,0 0,-1 2,0 0,-1 -3,0 z m 4,0 0,1 0,1 0,1 0,3 1,0 0,-3 2,0 0,-1 -2,0 0,-1 2,0 0,-1 -3,0 z m -7.5,1 c 0.726092,0 1.5,0.797743 1.5,2 0,1.202257 -0.773908,2 -1.5,2 C 52.773908,13 52,12.202257 52,11 52,9.797743 52.773908,9 53.5,9 Z"
         style="color:#000000;display:inline;overflow:visible;visibility:visible;fill:#bec7d4;fill-opacity:1;stroke:none;stroke-width:1;marker:none;enable-background:accumulate" />
      <path
         inkscape:connector-curvature="0"
         id="path3882"
         d="M 5.5,8 C 4.119288,8 3,9.3431458 3,11 3,12.656854 4.119288,14 5.5,14 6.880712,14 8,12.656854 8,11 8,9.3431458 6.880712,8 5.5,8 Z m 3.5,0 0,1 0,5 1,0 0,-4 2,4 1,0 0,-1 0,-5 -1,0 0,4 L 10,8 9,8 Z M 5.5,9 C 6.226092,9 7,9.797743 7,11 7,12.202257 6.226092,13 5.5,13 4.773908,13 4,12.202257 4,11 4,9.797743 4.773908,9 5.5,9 Z"
         style="color:#000000;display:inline;overflow:visible;visibility:visible;opacity:0.3;fill:#bec7d4;fill-opacity:1;fill-rule:nonzero;stroke:none;stroke-width:1;marker:none;enable-background:accumulate" />
      <rect
         y="0"
         x="0"
         height="22"
         width="66"
         id="rect3900"
         style="color:#000000;display:inline;overflow:visible;visibility:visible;opacity:0.1;fill:none;stroke:none;stroke-width:1;marker:none;enable-background:accumulate" />
      <g
         inkscape:export-ydpi="90"
         inkscape:export-xdpi="90"
         inkscape:export-filename="radio-unselected.png"
         id="g4941"
         transform="translate(-8.9999999,-393.36217)">
        <path
           inkscape:export-ydpi="90"
           inkscape:export-xdpi="90"
           inkscape:export-filename="scale-slider-normal.png"
           transform="matrix(0.855,0,0,0.85666688,-21.415625,171.34878)"
           d="m 80,262.63477 c -5.156273,0 -9.365234,4.20896 -9.365234,9.36523 0,5.15627 4.208961,9.36523 9.365234,9.36523 5.156273,0 9.365234,-4.20896 9.365234,-9.36523 0,-5.15627 -4.208961,-9.36523 -9.365234,-9.36523 z"
           id="path3906"
           style="color:#000000;display:inline;overflow:visible;visibility:visible;opacity:0.07000002;fill:#000000;fill-opacity:1;fill-rule:nonzero;stroke:none;stroke-width:2;marker:none;enable-background:accumulate"
           inkscape:original="M 80 264 C 75.581722 264 72 267.58172 72 272 C 72 276.41828 75.581722 280 80 280 C 84.418278 280 88 276.41828 88 272 C 88 267.58172 84.418278 264 80 264 z "
           inkscape:radius="1.3655443"
           sodipodi:type="inkscape:offset" />
        <path
           sodipodi:type="inkscape:offset"
           inkscape:radius="1.3655443"
           inkscape:original="M 80 264 C 75.581722 264 72 267.58172 72 272 C 72 276.41828 75.581722 280 80 280 C 84.418278 280 88 276.41828 88 272 C 88 267.58172 84.418278 264 80 264 z "
           style="color:#000000;display:inline;overflow:visible;visibility:visible;opacity:0.15;fill:#000000;fill-opacity:1;fill-rule:nonzero;stroke:none;stroke-width:2;marker:none;enable-background:accumulate"
           id="path4712"
           d="m 80,262.63477 c -5.156273,0 -9.365234,4.20896 -9.365234,9.36523 0,5.15627 4.208961,9.36523 9.365234,9.36523 5.156273,0 9.365234,-4.20896 9.365234,-9.36523 0,-5.15627 -4.208961,-9.36523 -9.365234,-9.36523 z"
           transform="matrix(0.855,0,0,0.85666688,-20.415625,171.34878)"
           inkscape:export-filename="scale-slider-normal.png"
           inkscape:export-xdpi="90"
           inkscape:export-ydpi="90" />
        <circle
           r="8"
           cy="272"
           cx="80"
           style="color:#000000;display:inline;overflow:visible;visibility:visible;opacity:0.5;fill:none;stroke:none;stroke-width:2;marker:none;enable-background:accumulate"
           id="path4714"
           transform="matrix(0.875,0,0,0.875,-23,167.36217)"
           inkscape:export-filename="scale-slider-normal.png"
           inkscape:export-xdpi="90"
           inkscape:export-ydpi="90" />
        <circle
           r="8"
           cy="272"
           cx="80"
           transform="matrix(0.875,0,0,0.875,-22,167.36217)"
           id="path4716"
           style="color:#000000;display:inline;overflow:visible;visibility:visible;opacity:0.2;fill:#000000;fill-opacity:1;fill-rule:nonzero;stroke:none;stroke-width:2;marker:none;enable-background:accumulate"
           inkscape:export-filename="scale-slider-normal.png"
           inkscape:export-xdpi="90"
           inkscape:export-ydpi="90" />
        <g
           id="g4718"
           transform="matrix(1.1666667,0,0,1.1666667,25.833333,24.772972)"
           clip-path="url(#clipPath5926-8)"
           inkscape:export-filename="scale-slider-normal.png"
           inkscape:export-xdpi="90"
           inkscape:export-ydpi="90">
          <rect
             style="fill:url(#linearGradient6178);fill-opacity:1;fill-rule:nonzero;stroke:none"
             id="rect4720"
             width="14"
             height="14"
             x="-332.36218"
             y="12"
             rx="1"
             ry="1"
             transform="matrix(0,-1,1,0,0,0)" />
        </g>
        <circle
           r="8"
           cy="272"
           cx="80"
           style="color:#000000;display:inline;overflow:visible;visibility:visible;opacity:0.5;fill:none;stroke:none;stroke-width:2;marker:none;enable-background:accumulate"
           id="path4776"
           transform="matrix(0.875,0,0,0.875,-22,166.36217)"
           inkscape:export-filename="scale-slider-normal.png"
           inkscape:export-xdpi="90"
           inkscape:export-ydpi="90" />
        <path
           style="color:#000000;display:inline;overflow:visible;visibility:visible;opacity:0.15;fill:url(#linearGradient4511);fill-opacity:1;fill-rule:nonzero;stroke:none;stroke-width:2;marker:none;enable-background:accumulate"
           d="m 41,404.36217 c 0,-3.866 3.134005,-7 7,-7 3.865995,0 7,3.134 7,7 0,3.86599 -3.134005,7 -7,7 -3.865995,0 -7,-3.13401 -7,-7 z m 1.166667,0 c 0,3.22167 2.611676,5.83333 5.833333,5.83333 3.221657,0 5.833333,-2.61166 5.833333,-5.83333 0,-3.22166 -2.611676,-5.83333 -5.833333,-5.83333 -3.221657,0 -5.833333,2.61167 -5.833333,5.83333 z"
           id="path4778"
           inkscape:connector-curvature="0"
           inkscape:export-filename="scale-slider-normal.png"
           inkscape:export-xdpi="90"
           inkscape:export-ydpi="90" />
      </g>
    </g>
  </g>
</svg>
